<?xml version="1.0" encoding="UTF-8" standalone="no"?>
<svg
   xmlns:dc="http://purl.org/dc/elements/1.1/"
   xmlns:cc="http://creativecommons.org/ns#"
   xmlns:rdf="http://www.w3.org/1999/02/22-rdf-syntax-ns#"
   xmlns:svg="http://www.w3.org/2000/svg"
   xmlns="http://www.w3.org/2000/svg"
   xmlns:sodipodi="http://sodipodi.sourceforge.net/DTD/sodipodi-0.dtd"
   xmlns:inkscape="http://www.inkscape.org/namespaces/inkscape"
   viewBox="0 0 512 512"
   id="svg2"
   version="1.1"
   inkscape:version="0.48.4 r9939"
   width="100%"
   height="100%"
   sodipodi:docname="castle.svg">
  <metadata
     id="metadata12">
    <rdf:RDF>
      <cc:Work
         rdf:about="">
        <dc:format>image/svg+xml</dc:format>
        <dc:type
           rdf:resource="http://purl.org/dc/dcmitype/StillImage" />
      </cc:Work>
    </rdf:RDF>
  </metadata>
  <defs
     id="defs10" />
  <sodipodi:namedview
     pagecolor="#ffffff"
     bordercolor="#666666"
     borderopacity="1"
     objecttolerance="10"
     gridtolerance="10"
     guidetolerance="10"
     inkscape:pageopacity="0"
     inkscape:pageshadow="2"
     inkscape:window-width="640"
     inkscape:window-height="480"
     id="namedview8"
     showgrid="false"
     inkscape:zoom="0.56356812"
     inkscape:cx="256"
     inkscape:cy="256"
     inkscape:window-x="920"
     inkscape:window-y="482"
     inkscape:window-maximized="0"
     inkscape:current-layer="svg2" />
  <path
     d="M255.95 27.11L180.6 107.614l150.7 1.168-75.35-81.674h-.003zM25 109.895v68.01l19.412 25.99h71.06l19.528-26v-68h-14v15.995h-18v-15.994H89v15.995H71v-15.994H57v15.995H39v-15.994H25zm352 0v68l19.527 26h71.06L487 177.906v-68.01h-14v15.995h-18v-15.994h-14v15.995h-18v-15.994h-14v15.995h-18v-15.994h-14zm-176 15.877V260.89h110V126.63l-110-.857zm55 20.118c8 0 16 4 16 12v32h-32v-32c0-8 8-12 16-12zM41 221.897V484.89h78V221.897H41zm352 0V484.89h78V221.897h-78zM56 241.89c4 0 8 4 8 12v32H48v-32c0-8 4-12 8-12zm400 0c4 0 8 4 8 12v32h-16v-32c0-8 4-12 8-12zm-303 37v23h-16v183h87v-55c0-24 16-36 32-36s32 12 32 36v55h87v-183h-16v-23h-14v23h-18v-23h-14v23h-18v-23h-14v23h-18v-23h-14v23h-18v-23h-14v23h-18v-23h-14v23h-18v-23h-14zm-49 43c4 0 8 4 8 12v32H96v-32c0-8 4-12 8-12zm72 0c8 0 16 4 16 12v32h-32v-32c0-8 8-12 16-12zm80 0c8 0 16 4 16 12v32h-32v-32c0-8 8-12 16-12zm80 0c8 0 16 4 16 12v32h-32v-32c0-8 8-12 16-12zm72 0c4 0 8 4 8 12v32h-16v-32c0-8 4-12 8-12zm-352 64c4 0 8 4 8 12v32H48v-32c0-8 4-12 8-12zm400 0c4 0 8 4 8 12v32h-16v-32c0-8 4-12 8-12z"
     fill="#000000"
     id="path6" />
</svg>
