<?xml version="1.0" standalone="no"?>
<!DOCTYPE svg PUBLIC "-//W3C//DTD SVG 20010904//EN"
 "http://www.w3.org/TR/2001/REC-SVG-20010904/DTD/svg10.dtd">
<svg version="1.0" xmlns="http://www.w3.org/2000/svg"
 width="260.000000pt" height="260.000000pt" viewBox="0 0 260.000000 260.000000"
 preserveAspectRatio="xMidYMid meet">
<metadata>
Created by potrace 1.11, written by Peter Selinger 2001-2013
</metadata>
<g transform="translate(0.000000,260.000000) scale(0.100000,-0.100000)"
fill="#000000" stroke="none">
<path d="M110 1300 l0 -1190 1190 0 1190 0 0 1190 0 1190 -1190 0 -1190 0 0
-1190z m430 1050 l0 -50 55 0 c48 0 55 -2 55 -20 0 -11 7 -20 15 -20 12 0 15
-18 15 -105 l0 -105 -35 0 -35 0 0 105 0 105 -35 0 -35 0 0 -105 0 -105 -35 0
-35 0 0 160 c0 153 1 160 20 160 11 0 20 7 20 15 0 8 7 15 15 15 11 0 15 -12
15 -50z m1300 35 c0 -10 -11 -15 -35 -15 -24 0 -35 5 -35 15 0 10 11 15 35 15
24 0 35 -5 35 -15z m-1410 -30 c0 -10 -11 -15 -35 -15 l-35 0 0 -145 0 -145
-35 0 -34 0 -3 142 c-2 106 -6 142 -16 146 -7 2 -16 -5 -19 -17 -9 -35 -33
-25 -33 14 l0 35 105 0 c87 0 105 -3 105 -15z m830 -1 c0 -9 9 -18 20 -21 16
-4 20 -14 20 -53 0 -39 -4 -49 -20 -53 -11 -3 -20 -12 -20 -21 0 -9 8 -16 20
-16 18 0 20 -7 20 -55 0 -48 -2 -55 -20 -55 -11 0 -20 -7 -20 -15 0 -12 -17
-15 -90 -15 l-90 0 0 160 0 160 90 0 c76 0 90 -3 90 -16z m-360 -74 c0 -14 7
-20 21 -20 18 0 20 -5 17 -52 l-3 -53 -72 -3 -73 -3 0 -34 0 -35 54 0 c45 0
54 3 59 20 3 11 12 20 21 20 9 0 16 -8 16 -20 0 -13 -7 -20 -20 -20 -11 0 -20
-7 -20 -15 0 -12 -14 -15 -70 -15 -56 0 -70 3 -70 15 0 8 -9 15 -20 15 -19 0
-20 7 -20 90 0 83 1 90 20 90 13 0 20 7 20 20 0 18 7 20 70 20 63 0 70 -2 70
-20z m617 0 c3 -11 12 -20 19 -20 11 0 14 -20 14 -90 0 -73 -3 -90 -15 -90 -8
0 -15 -7 -15 -15 0 -12 -15 -15 -75 -15 -60 0 -75 3 -75 15 0 8 -7 15 -15 15
-12 0 -15 17 -15 90 0 70 3 90 14 90 7 0 16 9 19 20 4 17 14 20 72 20 58 0 68
-3 72 -20z m106 0 c3 -11 12 -20 20 -20 8 0 17 9 20 20 4 15 14 20 36 20 29 0
31 -3 31 -35 0 -24 -5 -35 -15 -35 -8 0 -15 7 -15 15 0 8 -9 15 -20 15 -19 0
-20 -7 -20 -105 l0 -105 -35 0 -35 0 0 125 c0 100 3 125 14 125 7 0 16 -9 19
-20z m217 -105 l0 -125 -35 0 -35 0 0 105 c0 98 1 105 20 105 13 0 20 7 20 20
0 11 7 20 15 20 13 0 15 -21 15 -125z m70 105 c0 -13 7 -20 20 -20 13 0 20 7
20 20 0 18 7 20 55 20 48 0 55 -2 55 -20 0 -11 7 -20 15 -20 12 0 15 -18 15
-105 l0 -105 -35 0 -35 0 0 105 0 105 -35 0 -35 0 0 -105 0 -105 -35 0 -35 0
0 125 c0 104 2 125 15 125 8 0 15 -9 15 -20z m438 -37 c3 -48 1 -53 -17 -53
-14 0 -21 -6 -21 -20 0 -18 -7 -20 -55 -20 -42 0 -55 -3 -55 -15 0 -12 13 -15
55 -15 48 0 55 -2 55 -20 0 -13 7 -20 20 -20 16 0 20 -7 20 -35 0 -28 -4 -35
-20 -35 -13 0 -20 -7 -20 -20 0 -18 -7 -20 -70 -20 -63 0 -70 2 -70 20 0 13
-7 20 -20 20 -11 0 -20 7 -20 15 0 8 9 15 20 15 11 0 20 -7 20 -15 0 -12 13
-15 55 -15 l55 0 0 35 0 35 -75 0 -75 0 0 35 c0 28 4 35 20 35 13 0 20 7 20
20 0 13 -7 20 -20 20 -16 0 -20 7 -20 35 0 28 4 35 20 35 13 0 20 7 20 20 0
20 5 21 88 18 l87 -3 3 -52z m-1348 -333 c0 -25 4 -30 25 -30 25 0 25 -1 25
-80 0 -79 0 -80 -25 -80 -20 0 -25 -5 -25 -24 0 -19 -6 -25 -27 -28 -22 -2
-28 -8 -28 -28 0 -20 6 -26 28 -28 21 -3 27 -9 27 -28 0 -19 5 -24 25 -24 24
0 25 -3 25 -55 l0 -55 -49 0 c-47 0 -50 2 -53 28 -2 21 -9 28 -30 30 -26 3
-28 6 -28 53 0 46 -2 49 -25 49 -25 0 -25 -1 -25 -80 l0 -80 -55 0 -55 0 0
245 0 245 135 0 135 0 0 -30z m380 0 c0 -25 4 -30 25 -30 l25 0 0 -105 0 -105
-25 0 c-21 0 -25 -5 -25 -30 l0 -30 -80 0 -80 0 0 -80 0 -80 -55 0 -55 0 0
245 0 245 135 0 135 0 0 -30z m382 3 c2 -22 9 -29 31 -31 21 -3 27 -9 27 -28
0 -22 -3 -24 -54 -24 -52 0 -55 1 -58 28 -3 25 -7 27 -55 30 l-53 3 0 -195 0
-196 55 0 55 0 0 85 0 85 -30 0 c-25 0 -30 4 -30 25 0 25 1 25 85 25 l85 0 0
-135 0 -135 -134 0 -135 0 -3 28 c-2 21 -9 28 -30 30 l-28 3 0 184 0 184 28 3
c21 2 28 9 30 31 l3 27 104 0 104 0 3 -27z m-352 -584 c32 -17 71 -45 88 -62
l31 -32 -16 -66 c-15 -60 -15 -73 -1 -128 17 -69 17 -69 -53 -100 -74 -34 -75
-33 -76 67 l-1 88 41 15 c39 13 42 17 45 56 l3 42 -36 -15 c-48 -20 -142 -20
-188 0 l-37 15 0 -43 c0 -43 1 -44 45 -57 l45 -13 0 -92 0 -92 -37 10 c-39 11
-89 33 -110 50 -10 8 -9 18 3 46 20 48 19 127 -1 177 l-17 40 44 40 c49 43
122 85 152 85 10 0 44 -14 76 -31z m-401 -78 c24 -114 41 -323 41 -510 l0
-194 53 7 c28 4 62 10 75 13 19 4 22 1 22 -26 l0 -31 -89 0 c-82 0 -90 -2 -96
-21 -9 -28 -10 -167 -1 -207 7 -31 7 -32 -28 -32 l-35 0 6 83 c3 46 3 105 -1
130 l-7 47 -95 0 -94 0 0 31 c0 29 2 31 28 25 15 -3 48 -9 73 -12 l46 -6 6 77
c4 43 7 126 7 184 0 114 22 323 45 436 8 39 15 75 15 80 1 22 18 -23 29 -74z
m857 -503 c-11 -194 -52 -327 -125 -411 -38 -43 -141 -97 -185 -97 -82 0 -204
99 -252 204 -37 81 -64 200 -71 314 l-6 102 323 0 323 0 -7 -112z"/>
<path d="M1154 2327 c-3 -8 -4 -34 -2 -58 2 -32 8 -45 21 -47 12 -2 17 3 17
17 0 15 6 21 21 21 17 0 20 5 17 38 -3 34 -6 37 -36 40 -21 2 -34 -2 -38 -11z"/>
<path d="M1154 2176 c-3 -8 -4 -31 -2 -52 3 -37 5 -39 41 -42 l37 -3 0 55 0
56 -35 0 c-21 0 -38 -6 -41 -14z"/>
<path d="M790 2225 c0 -34 1 -35 40 -35 39 0 40 1 40 35 0 34 -1 35 -40 35
-39 0 -40 -1 -40 -35z"/>
<path d="M1410 2170 l0 -90 35 0 35 0 0 90 0 90 -35 0 -35 0 0 -90z"/>
<path d="M2200 2225 c0 -34 1 -35 40 -35 39 0 40 1 40 35 0 34 -1 35 -40 35
-39 0 -40 -1 -40 -35z"/>
<path d="M840 1806 l0 -86 55 0 56 0 -3 83 -3 82 -52 3 -53 3 0 -85z"/>
<path d="M1220 1781 l0 -111 55 0 56 0 -3 108 -3 107 -52 3 -53 3 0 -110z"/>
</g>
</svg>
